<?xml version="1.0" encoding="iso-8859-1"?>
<!-- Generator: Adobe Illustrator 19.0.0, SVG Export Plug-In . SVG Version: 6.00 Build 0)  -->
<svg version="1.1" id="Layer_1" xmlns="http://www.w3.org/2000/svg" xmlns:xlink="http://www.w3.org/1999/xlink" x="0px" y="0px"
	 viewBox="0 0 512 512" style="enable-background:new 0 0 512 512;" xml:space="preserve">
<path style="fill:#949FB3;" d="M91.582,489.703l21.87-43.726c8.935-17.765,35.693-4.295,26.836,13.418l-21.87,43.726
	C109.514,520.88,82.661,507.545,91.582,489.703z"/>
<path style="fill:#8A94A8;" d="M393.582,503.121l-21.87-43.726c-8.82-17.641,17.929-31.197,26.836-13.418l21.87,43.726
	C429.353,507.573,402.392,520.691,393.582,503.121z"/>
<path style="fill:#BFC6D4;" d="M446.697,239.603c-13.271-56.924-51.24-104.429-104.194-130.327
	c-9.672-4.727-11.367-17.909-3.091-24.932C358.353,68.318,382.347,59.5,407,59.5c57.891,0,105,47.109,105,105
	c0,32.944-15.161,63.428-41.587,83.628C461.806,254.69,449.184,250.274,446.697,239.603z"/>
<path style="fill:#CDD3DE;" d="M41.587,248.128C15.161,227.928,0,197.444,0,164.5c0-57.891,47.109-105,105-105
	c24.653,0,48.647,8.818,67.588,24.844c8.276,7.022,6.581,20.204-3.091,24.932c-52.954,25.898-90.923,73.403-104.194,130.327
	C62.836,250.187,50.229,254.717,41.587,248.128z"/>
<path style="fill:#949FB3;" d="M347,110.778c-8.284,0-15-6.716-15-15V75.5c0-24.813-20.187-45-45-45h-62c-24.813,0-45,20.187-45,45
	v20.278c0,8.284-6.716,15-15,15s-15-6.716-15-15V75.5c0-41.355,33.645-75,75-75h62c41.355,0,75,33.645,75,75v20.278
	C362,104.062,355.284,110.778,347,110.778z"/>
<path style="fill:#8A94A8;" d="M287,0.5h-30v30h30c24.813,0,45,20.187,45,45v20.278c0,8.284,6.716,15,15,15s15-6.716,15-15V75.5
	C362,34.145,328.355,0.5,287,0.5z"/>
<path style="fill:#D94158;" d="M257,59.2c-0.3,0-0.3,0-0.601,0c-32.1,0-66.799,7.2-97.999,22.2C101.4,102.4,30,181.6,30,284.5
	c0,125.4,103.7,226.912,227,226.912S482,409.599,482,284.5C482,152.499,373.7,59.5,257,59.2z"/>
<path style="fill:#CC2944;" d="M482,284.5c0,125.099-101.7,226.912-225,226.912V59.2C373.7,59.5,482,152.499,482,284.5z"/>
<path style="fill:#CDD3DE;" d="M407,284.5c0,5.099-0.3,12.113-0.901,16.912c-6.899,70.8-63.3,127.2-134.099,134.099
	c-4.799,0.601-9.901,0.901-15,0.901s-12.201-0.3-17-0.901c-70.8-6.899-127.2-63.3-134.099-134.099
	C105.3,296.613,105,289.599,105,284.5s0.3-10.201,0.901-15C112.8,198.7,169.2,142.3,240,135.401c4.799-0.601,11.901-0.901,17-0.901
	s10.201,0.3,15,0.901c70.8,6.899,127.2,63.3,134.099,134.099C406.7,274.299,407,279.401,407,284.5z"/>
<path style="fill:#BFC6D4;" d="M407,284.5c0,5.099-0.3,12.113-0.901,16.912c-6.899,70.8-63.3,127.2-134.099,134.099
	c-4.799,0.601-9.901,0.901-15,0.901V134.5c5.099,0,10.201,0.3,15,0.901c70.8,6.899,127.2,63.3,134.099,134.099
	C406.7,274.299,407,279.401,407,284.5z"/>
<g>
	<path style="fill:#6F7D96;" d="M272,135.401V164.5c0,9.901-7.5,15-15,15s-17-5.099-17-15v-29.099
		c4.799-0.601,11.901-0.901,17-0.901S267.201,134.8,272,135.401z"/>
	<path style="fill:#6F7D96;" d="M272,406.412v29.099c-4.799,0.601-9.901,0.901-15,0.901s-12.201-0.3-17-0.901v-29.099
		c0-9.901,9.5-15,17-15S272,396.511,272,406.412z"/>
	<path style="fill:#6F7D96;" d="M135,301.412h-29.099C105.3,296.613,105,289.599,105,284.5s0.3-10.201,0.901-15H135
		C154.872,269.5,154.872,301.412,135,301.412z"/>
</g>
<path style="fill:#66728B;" d="M407,284.5c0,5.099-0.3,12.113-0.901,16.912H377c-19.872,0-19.872-31.912,0-31.912h29.099
	C406.7,274.299,407,279.401,407,284.5z"/>
<path style="fill:#495A79;" d="M272,284.5v61.912c0,8.401-6.599,15-15,15s-17-6.599-17-15v-53.699L184.501,235
	c-14.101-13.799,7.2-35.099,20.999-20.999L257,263.5l10.499,10.501C270.5,276.7,272,280.6,272,284.5z"/>
<path style="fill:#66728B;" d="M257,134.5c5.099,0,10.201,0.3,15,0.901V164.5c0,9.901-7.5,15-15,15V134.5z"/>
<path style="fill:#42516D;" d="M267.499,274.001C270.5,276.7,272,280.6,272,284.5v61.912c0,8.401-6.599,15-15,15V263.5
	L267.499,274.001z"/>
<path style="fill:#66728B;" d="M272,406.412v29.099c-4.799,0.601-9.901,0.901-15,0.901v-45C264.5,391.412,272,396.511,272,406.412z"
	/>
<path style="fill:#E0E4EC;" d="M257,119.5c-90.901,0-167,74.099-167,165s76.099,166.912,167,166.912S422,375.401,422,284.5
	S347.901,119.5,257,119.5z M257,421.412c-74.399,0-137-62.513-137-136.912s62.601-135,137-135s135,60.601,135,135
	S331.399,421.412,257,421.412z"/>
<path style="fill:#D1D7E3;" d="M422,284.5c0,90.901-74.099,166.912-165,166.912v-30c74.399,0,135-62.513,135-136.912
	s-60.601-135-135-135v-30C347.901,119.5,422,193.599,422,284.5z"/>
<g>
</g>
<g>
</g>
<g>
</g>
<g>
</g>
<g>
</g>
<g>
</g>
<g>
</g>
<g>
</g>
<g>
</g>
<g>
</g>
<g>
</g>
<g>
</g>
<g>
</g>
<g>
</g>
<g>
</g>
</svg>
